<mxfile host="app.diagrams.net" modified="2024-03-21T12:01:23.970Z" agent="Mozilla/5.0 (Windows NT 10.0; Win64; x64) AppleWebKit/537.36 (KHTML, like Gecko) Chrome/122.0.0.0 Safari/537.36" version="24.0.7" etag="LjcoXVdcEXkFujxMKhjQ" type="github">
  <diagram name="第 1 页" id="aeGlb1lvZIa92L7aJVmW">
    <mxGraphModel>
      <root>
        <mxCell id="0" />
        <mxCell id="1" parent="0" />
      </root>
    </mxGraphModel>
  </diagram>
</mxfile>
